<?xml version="1.0" encoding="UTF-8"?>
<svg enable-background="new 0 0 234.78 108" version="1.1" viewBox="0 0 234.78 108" xml:space="preserve" xmlns="http://www.w3.org/2000/svg">
<style type="text/css">
	.st0{fill:#008C34;}
	.st1{fill:#991A81;}
	.st2{fill:#0095DB;}
	.st3{fill:#AC9E89;}
</style>
<rect class="st0" x="148.53" y="7.38" width="58.26" height="64.74"/>
<path d="m28.31 70.25c0 0.61 0.07 1.24 0.09 1.84h-1.91l-0.07-1.47h-0.05c-0.52 0.78-1.42 1.61-3.17 1.61-2.48 0-4.16-1.68-4.16-5.13s1.68-5.13 4.16-5.13c1.37 0 2.27 0.45 3.07 1.51h0.05v-6.08h1.98v12.85zm-4.63-6.95c-1.82 0-2.65 1.29-2.65 3.8s0.83 3.8 2.65 3.8 2.65-1.29 2.65-3.8-0.83-3.8-2.65-3.8"/>
<path d="m32.99 59.95h-2.17v-1.96h2.17v1.96zm-2.07 2.15h1.98v9.99h-1.98v-9.99z"/>
<path d="m37.1 67.58c0 2.31 1.09 3.39 3.28 3.39 0.99 0 2.08-0.41 2.77-0.82l0.1 1.49c-0.95 0.37-2.17 0.59-3.38 0.59-3.19 0-4.84-2-4.84-5.13s1.65-5.13 4.65-5.13c2.72 0 4.23 1.8 4.23 4.74v0.88h-6.81zm4.82-1.25c0-2.08-0.78-3.11-2.36-3.11-1.27 0-2.41 0.78-2.46 3.11h4.82z"/>
<path d="m60.91 72.52c0 2.76-2.5 3.92-5.15 3.92-1.02 0-2.65-0.31-3.52-0.61l0.09-1.66c0.85 0.47 2.22 0.86 3.31 0.86 2.43 0 3.38-1.19 3.38-2.92v-1.57h-0.05c-0.78 1.14-1.84 1.68-3.17 1.68-2.48 0-4.16-1.68-4.16-5.13s1.68-5.13 4.37-5.13c1.2 0 2.29 0.63 2.95 1.59h0.05l0.07-1.45h1.91c-0.02 0.59-0.1 1.21-0.1 1.82v8.6zm-4.63-1.62c1.82 0 2.65-1.29 2.65-3.8s-0.83-3.8-2.65-3.8-2.65 1.29-2.65 3.8c0.01 2.5 0.83 3.8 2.65 3.8"/>
<path d="m63.43 64.25c0-0.72-0.07-1.45-0.1-2.15h1.91l0.07 1.57h0.05c0.64-1.21 1.65-1.7 3.43-1.7v1.63c-0.24-0.04-0.5-0.06-0.76-0.06-1.53 0-2.62 1.1-2.62 3.27v5.29h-1.98v-7.85z"/>
<path d="m70.51 62.79c0.99-0.53 2.22-0.82 3.4-0.82 1.77 0 2.84 0.63 3.21 0.94 0.52 0.43 1.04 1.04 1.04 2.45v5.21c0 0.59 0.05 1.17 0.09 1.53h-1.79l-0.12-1.35h-0.04c-0.54 0.76-1.54 1.49-3.38 1.49-1.98 0-3.47-0.96-3.47-2.88 0-1.94 1.54-3.37 5.67-3.37h1.16v-0.45c0-0.75-0.07-1.18-0.45-1.61-0.4-0.45-1.18-0.63-2.01-0.63-1.23 0-2.41 0.41-3.09 1.04l-0.22-1.55zm5.76 4.4c-0.35-0.04-0.85-0.04-1.39-0.04-2.34 0-3.45 0.92-3.45 2.08 0 1.06 0.66 1.74 2.03 1.74 1.72 0 2.81-1.16 2.81-2.53v-1.25z"/>
<path d="m81.44 63.43h-1.91v-1.33h1.91v-2.23c0-1.63 0.9-2.7 3-2.7 0.54 0 1.11 0.06 1.56 0.15v1.41c-0.24-0.16-0.66-0.24-1.13-0.24-1.11 0-1.44 0.51-1.44 1.51v2.1h2.17v1.33h-2.17v8.66h-1.98v-8.66z"/>
<path d="m86.71 70.15c0.9 0.45 1.84 0.74 2.83 0.74 1.51 0 2.29-0.65 2.29-1.41 0-0.69-0.43-1.15-1.54-1.57l-1.32-0.49c-1.72-0.65-2.36-1.29-2.36-2.57 0-1.64 1.53-2.9 3.87-2.9 0.99 0 1.87 0.14 2.55 0.35l-0.09 1.41c-0.61-0.24-1.46-0.43-2.36-0.43-1.3 0-1.98 0.59-1.98 1.37 0 0.8 0.71 1.25 2.03 1.68l0.71 0.24c1.46 0.49 2.39 1.31 2.39 2.55 0 1.72-1.11 3.1-3.88 3.1-1.25 0-2.39-0.22-3.26-0.59l0.12-1.48z"/>
<path d="m102.84 63.84c-0.68-0.31-1.37-0.47-2.29-0.47-1.94 0-3.3 1.12-3.3 3.82 0 2.31 1.32 3.62 3.26 3.62 0.95 0 1.75-0.24 2.44-0.53l0.09 1.51c-0.59 0.22-1.66 0.43-2.53 0.43-3.59 0-5.34-2.22-5.34-5.03 0-3.23 2.03-5.23 5.39-5.23 0.83 0 1.75 0.14 2.39 0.39l-0.11 1.49z"/>
<path d="m104.66 57.4h1.98v6.07h0.05c0.52-0.84 1.56-1.51 2.95-1.51 2.1 0 3.52 1 3.52 3.19v6.93h-1.98v-6.44c0-1.59-0.71-2.27-1.98-2.27-1.56 0-2.55 0.9-2.55 2.7v6.01h-1.98v-14.68z"/>
<path d="m116.08 62.79c0.99-0.53 2.22-0.82 3.4-0.82 1.77 0 2.83 0.63 3.21 0.94 0.52 0.43 1.04 1.04 1.04 2.45v5.21c0 0.59 0.05 1.17 0.09 1.53h-1.8l-0.12-1.35h-0.05c-0.54 0.76-1.54 1.49-3.38 1.49-1.98 0-3.47-0.96-3.47-2.88 0-1.94 1.53-3.37 5.67-3.37h1.16v-0.45c0-0.75-0.07-1.18-0.45-1.61-0.4-0.45-1.18-0.63-2.01-0.63-1.23 0-2.41 0.41-3.09 1.04l-0.2-1.55zm5.76 4.4c-0.35-0.04-0.85-0.04-1.4-0.04-2.34 0-3.45 0.92-3.45 2.08 0 1.06 0.66 1.74 2.03 1.74 1.73 0 2.81-1.16 2.81-2.53v-1.25z"/>
<path d="M127,63.43h-1.91V62.1H127v-2.23c0-1.63,0.9-2.7,3-2.7c0.54,0,1.11,0.06,1.56,0.15v1.41c-0.24-0.16-0.66-0.24-1.13-0.24  c-1.11,0-1.44,0.51-1.44,1.51v2.1h2.17v1.33h-2.17v8.66H127V63.43z"/>
<path d="m138.53 71.97c-0.47 0.14-1.14 0.26-1.68 0.26-1.82 0-2.78-0.61-2.78-2.37v-6.42h-1.91v-1.34h1.91v-2.04l1.98-0.49v2.53h2.48v1.33h-2.48v5.89c0 1.14 0.36 1.57 1.25 1.57 0.5 0 0.85-0.12 1.23-0.25v1.33z"/>
<polygon points="4.86 80.85 5.57 80.85 5.57 88.16 8.16 88.16 8.16 88.83 4.86 88.83"/>
<path d="m13.13 87.52c0 0.43 0.04 0.87 0.07 1.3h-0.6l-0.04-0.83h-0.02c-0.4 0.64-0.88 0.92-1.63 0.92-0.9 0-1.62-0.74-1.62-1.69 0-1.86 1.98-1.9 2.81-1.9h0.42c0-0.73 0-1.78-1.21-1.78-0.78 0-1.4 0.55-1.46 0.61l-0.1-0.71c0.55-0.3 0.96-0.51 1.6-0.51 1.79 0 1.79 1.51 1.79 1.93v2.66zm-0.61-1.63c-1.37 0-2.53 0-2.53 1.33 0 0.49 0.37 1.07 1.08 1.07 0.31 0 1.45-0.13 1.45-1.71v-0.69z"/>
<path d="m14.9 84.8c0-0.61-0.04-1.2-0.05-1.81h0.62c0.02 0.26 0.03 0.44 0.04 0.86h0.02c0.14-0.25 0.51-0.94 1.49-0.94 1.61 0 1.61 1.61 1.61 2v3.91h-0.66v-3.93c0-0.4 0-1.36-1.09-1.36-0.81 0-1.33 0.77-1.33 1.67v3.62h-0.65v-4.02z"/>
<path d="m24.27 86.9c0 0.92 0.02 1.43 0.05 1.93h-0.62v-0.8h-0.02c-0.43 0.55-0.8 0.88-1.53 0.88-1.9 0-1.97-2.4-1.97-3.21 0-1.11 0.47-2.78 1.93-2.78 0.74 0 1.18 0.3 1.48 0.83h0.02v-3.5h0.66v6.65zm-2.06 1.39c1.13 0 1.44-1.12 1.44-2.31 0-0.78 0-2.45-1.43-2.45-1 0-1.34 1.03-1.34 2.38 0 0.48 0 2.38 1.33 2.38"/>
<polygon points="26.06 80.25 26.72 80.25 26.72 85.34 28.93 83 29.78 83 27.31 85.58 30.01 88.83 29.11 88.83 26.75 85.87 26.72 85.87 26.72 88.83 26.06 88.83"/>
<path d="m31.27 84.8c0-0.61-0.04-1.2-0.05-1.81h0.62c0.01 0.34 0.03 0.69 0.05 0.93h0.02c0.42-0.83 0.92-1 1.55-1v0.71c-1.05 0-1.53 0.46-1.53 1.53v3.67h-0.66v-4.03z"/>
<path d="m35.07 86.13c0 2.16 1.38 2.16 1.65 2.16 0.38 0 0.93-0.18 1.26-0.48l0.03 0.77c-0.28 0.15-0.66 0.33-1.36 0.33-2.29 0-2.29-2.41-2.29-3 0-2.2 1.08-3 2.07-3 1.69 0 1.86 1.8 1.86 3.21h-3.22zm2.52-0.62c0-1.54-0.65-1.98-1.19-1.98-0.9 0-1.33 1.22-1.33 1.98h2.52z"/>
<path d="M39.75,80.67h0.8v1.03h-0.8V80.67z M39.81,83h0.66v5.83h-0.66V83z"/>
<path d="m44.68 83.77c-0.33-0.12-0.62-0.24-0.99-0.24-0.69 0-1 0.51-1 0.93 0 0.54 0.21 0.65 1 1.09 0.8 0.43 1.42 0.73 1.42 1.67 0 1.05-0.74 1.69-1.73 1.69-0.72 0-1.13-0.15-1.47-0.28l0.09-0.74c0.2 0.14 0.79 0.4 1.33 0.4 0.63 0 1.08-0.48 1.08-1.01 0-0.56-0.36-0.79-1.04-1.13-0.99-0.49-1.37-0.8-1.37-1.62 0-1.1 0.94-1.61 1.72-1.61 0.39 0 0.86 0.1 1.07 0.17l-0.11 0.68z"/>
<path d="m52.79 84.54h2.14v3.93c-0.57 0.31-1.19 0.43-1.84 0.43-2.8 0-3.49-2.63-3.49-4.15 0-2.05 1.22-3.99 3.46-3.99 0.64 0 1.43 0.25 1.67 0.39l-0.03 0.78c-0.31-0.24-1.07-0.51-1.68-0.51-1.14 0-2.66 0.87-2.66 3.4 0 1.46 0.66 3.42 2.77 3.42 0.41 0 0.73-0.05 1.1-0.24v-2.8h-1.43v-0.66z"/>
<path d="m56.81 84.8c0-0.61-0.03-1.2-0.05-1.81h0.61c0.01 0.34 0.04 0.69 0.05 0.93h0.02c0.42-0.83 0.92-1 1.55-1v0.71c-1.05 0-1.53 0.46-1.53 1.53v3.67h-0.66v-4.03z"/>
<path d="m63.78 87.52c0 0.43 0.03 0.87 0.07 1.3h-0.59l-0.05-0.83h-0.02c-0.4 0.64-0.88 0.92-1.64 0.92-0.9 0-1.62-0.74-1.62-1.69 0-1.86 1.98-1.9 2.81-1.9h0.42c0-0.73 0-1.78-1.21-1.78-0.78 0-1.4 0.55-1.47 0.61l-0.1-0.71c0.55-0.3 0.96-0.51 1.6-0.51 1.8 0 1.8 1.51 1.8 1.93v2.66zm-0.62-1.63c-1.37 0-2.53 0-2.53 1.33 0 0.49 0.37 1.07 1.08 1.07 0.31 0 1.45-0.13 1.45-1.71v-0.69z"/>
<path d="M65.87,83.61h-0.9V83h0.9v-1.25c0-0.88,0.24-1.64,1.43-1.64c0.23,0,0.39,0.04,0.5,0.06v0.66c-0.11-0.04-0.3-0.1-0.53-0.1  c-0.59,0-0.74,0.42-0.74,0.89V83h1.03v0.62h-1.03v5.22h-0.66V83.61z"/>
<path d="m71.34 83.77c-0.33-0.12-0.62-0.24-1-0.24-0.69 0-1 0.51-1 0.93 0 0.54 0.21 0.65 1 1.09 0.8 0.43 1.42 0.73 1.42 1.67 0 1.05-0.74 1.69-1.73 1.69-0.72 0-1.13-0.15-1.47-0.28l0.09-0.74c0.19 0.14 0.79 0.4 1.33 0.4 0.63 0 1.08-0.48 1.08-1.01 0-0.56-0.36-0.79-1.04-1.13-0.98-0.49-1.37-0.8-1.37-1.62 0-1.1 0.94-1.61 1.71-1.61 0.39 0 0.86 0.1 1.08 0.17l-0.1 0.68z"/>
<path d="m76.43 83.88c-0.26-0.22-0.71-0.3-1.05-0.3-0.89 0-1.71 0.62-1.71 2.16 0 2.14 1.18 2.51 1.81 2.51 0.26 0 0.79-0.08 0.99-0.31l0.06 0.75c-0.29 0.12-0.72 0.22-1.13 0.22-1.25 0-2.42-0.96-2.42-2.97 0-1.79 0.79-3.02 2.41-3.02 0.47 0 0.81 0.09 1.09 0.2l-0.05 0.76z"/>
<path d="m77.83 80.25h0.66v3.6h0.02c0.11-0.25 0.51-0.94 1.44-0.94 1.61 0 1.61 1.61 1.61 2v3.91h-0.66v-3.93c0-0.4 0-1.36-1.09-1.36-0.81 0-1.33 0.77-1.33 1.67v3.62h-0.66v-8.57z"/>
<path d="m86.86 87.52c0 0.43 0.03 0.87 0.07 1.3h-0.6l-0.05-0.83h-0.02c-0.4 0.64-0.88 0.92-1.63 0.92-0.9 0-1.62-0.74-1.62-1.69 0-1.86 1.98-1.9 2.81-1.9h0.42c0-0.73 0-1.78-1.21-1.78-0.78 0-1.39 0.55-1.46 0.61l-0.1-0.71c0.55-0.3 0.96-0.51 1.6-0.51 1.8 0 1.8 1.51 1.8 1.93v2.66zm-0.62-1.63c-1.37 0-2.53 0-2.53 1.33 0 0.49 0.36 1.07 1.08 1.07 0.31 0 1.45-0.13 1.45-1.71v-0.69z"/>
<path d="M88.95,83.61h-0.91V83h0.91v-1.25c0-0.88,0.24-1.64,1.43-1.64c0.23,0,0.39,0.04,0.5,0.06v0.66c-0.11-0.04-0.3-0.1-0.53-0.1  c-0.58,0-0.74,0.42-0.74,0.89V83h1.03v0.62h-1.03v5.22h-0.66V83.61z"/>
<path d="m93.18 81.62v1.38h1.19v0.62h-1.19v3.8c0 0.47 0.08 0.88 0.64 0.88 0.31 0 0.42-0.07 0.55-0.13v0.66c-0.16 0.06-0.46 0.08-0.77 0.08-0.86 0-1.09-0.66-1.09-1.32v-3.98h-0.87v-0.61h0.87v-1.17l0.67-0.21z"/>
<path d="m99.04 80.85h1.86c1.4 0 2.05 0.95 2.05 1.93 0 1.19-0.75 1.65-1.26 1.85v0.02c0.73 0.21 1.43 0.78 1.43 1.94 0 2.23-2.14 2.23-2.71 2.23h-1.37v-7.97zm0.71 3.51h0.97c0.83 0 1.47-0.54 1.47-1.49 0-0.75-0.41-1.36-1.45-1.36h-1v2.85zm0 3.8h1.01c1.54 0 1.61-1.28 1.61-1.53 0-0.94-0.55-1.61-1.53-1.61h-1.09v3.14z"/>
<path d="m105.29 86.13c0 2.16 1.38 2.16 1.65 2.16 0.38 0 0.93-0.18 1.26-0.48l0.04 0.77c-0.27 0.15-0.66 0.33-1.36 0.33-2.29 0-2.29-2.41-2.29-3 0-2.2 1.09-3 2.07-3 1.69 0 1.86 1.8 1.86 3.21h-3.23zm2.52-0.62c0-1.54-0.65-1.98-1.19-1.98-0.9 0-1.33 1.22-1.33 1.98h2.52z"/>
<path d="m110.01 84.8c0-0.61-0.04-1.2-0.05-1.81h0.62c0.02 0.26 0.03 0.44 0.04 0.86h0.03c0.14-0.25 0.51-0.94 1.49-0.94 1.61 0 1.61 1.61 1.61 2v3.91h-0.66v-3.93c0-0.4 0-1.36-1.09-1.36-0.81 0-1.33 0.77-1.33 1.67v3.62h-0.66v-4.02z"/>
<path d="m116.5 81.62v1.38h1.19v0.62h-1.19v3.8c0 0.47 0.08 0.88 0.64 0.88 0.31 0 0.42-0.07 0.55-0.13v0.66c-0.16 0.06-0.46 0.08-0.77 0.08-0.86 0-1.09-0.66-1.09-1.32v-3.98h-0.87v-0.61h0.87v-1.17l0.67-0.21z"/>
<path d="m119.01 80.25h0.66v3.6h0.02c0.11-0.25 0.52-0.94 1.44-0.94 1.61 0 1.61 1.61 1.61 2v3.91h-0.66v-3.93c0-0.4 0-1.36-1.09-1.36-0.81 0-1.33 0.77-1.33 1.67v3.62h-0.66v-8.57z"/>
<path d="m124.97 86.13c0 2.16 1.38 2.16 1.65 2.16 0.38 0 0.93-0.18 1.26-0.48l0.03 0.77c-0.27 0.15-0.66 0.33-1.36 0.33-2.29 0-2.29-2.41-2.29-3 0-2.2 1.09-3 2.07-3 1.69 0 1.86 1.8 1.86 3.21h-3.22zm2.52-0.62c0-1.54-0.65-1.98-1.19-1.98-0.9 0-1.33 1.22-1.33 1.98h2.52z"/>
<path d="M129.65,80.67h0.8v1.03h-0.8V80.67z M129.71,83h0.66v5.83h-0.66V83z"/>
<path d="m132.2 84.8c0-0.61-0.03-1.2-0.05-1.81h0.62c0.02 0.26 0.03 0.44 0.04 0.86h0.03c0.18-0.42 0.6-0.94 1.35-0.94 0.96 0 1.2 0.6 1.34 0.94 0.17-0.27 0.61-0.94 1.45-0.94 1.18 0 1.51 0.98 1.51 1.9v4.01h-0.66v-3.93c0-0.4 0-1.36-0.95-1.36-0.82 0.01-1.2 0.73-1.2 1.56v3.74h-0.66v-4.06c0-0.75-0.33-1.24-0.88-1.24-0.76 0-1.27 0.77-1.27 1.67v3.62h-0.66v-4.02z"/>
<rect class="st1" x="187.37" y="74.71" width="19.42" height="25.9"/>
<rect class="st2" x="209.38" y="20.33" width="12.95" height="51.79"/>
<rect class="st3" x="209.38" y="74.71" width="19.42" height="19.42"/>
</svg>
